<?xml version="1.0" encoding="utf-8"?>
<!-- Generator: Adobe Illustrator 21.0.0, SVG Export Plug-In . SVG Version: 6.00 Build 0)  -->
<svg version="1.1" id="Слой_1" xmlns="http://www.w3.org/2000/svg" xmlns:xlink="http://www.w3.org/1999/xlink" x="0px" y="0px"
	 viewBox="0 0 400 125" style="enable-background:new 0 0 400 125;" xml:space="preserve">
<style type="text/css">
	.st0{fill:#3B4C85;}
	.st1{fill:#5467A6;}
	.st2{fill:#FFFFFF;}
	.st3{enable-background:new    ;}
</style>
<rect x="4" y="4" class="st0" width="392" height="117"/>
<path class="st1" d="M392,8v109H8V8H392 M400,0H0v125h400V0L400,0z"/>
<g id="ICOmarks">
	<g id="IC">
		<path class="st2" d="M37.5,80.9h-8V45.7h8V80.9z"/>
		<path class="st2" d="M57.4,80.9c-2.3,0-4.5-0.4-6.7-1.3c-2.1-0.8-4.1-2.1-5.7-3.9c-1.7-1.7-2.9-3.6-3.8-5.7
			c-0.8-2.1-1.4-4.4-1.4-6.7c0-2.4,0.5-4.7,1.4-6.8s2.1-4,3.8-5.6c1.7-1.7,3.7-3,5.9-3.9s4.4-1.3,6.7-1.3s4.5,0.4,6.6,1.3
			c2.1,0.8,4.1,2.1,5.7,3.9l-5.7,5.7c-0.9-0.9-2-1.6-3.2-2.1c-1.1-0.5-2.4-0.6-3.6-0.6c-1.1,0-2.4,0.2-3.6,0.6
			c-1.1,0.5-2.2,1.1-3.1,2.1c-0.8,0.9-1.6,2-2.1,3.1s-0.7,2.4-0.7,3.7c0,1.3,0.3,2.5,0.7,3.6c0.5,1.1,1.1,2.2,2.1,3
			c0.9,0.9,2,1.6,3.1,2.1s2.3,0.6,3.6,0.6c1.1,0,2.4-0.2,3.6-0.6c1.1-0.5,2.3-1.1,3.2-2.1l5.7,5.7c-1.7,1.7-3.7,3-5.7,3.9
			C62,80.5,59.7,80.9,57.4,80.9z"/>
	</g>
	<g id="marks">
		<path class="st2" d="M147.5,48.4c3.4,0,6.2,1,8.4,3c2.1,2.1,3.2,5.1,3.2,9.3v16h-2.8V60.6c-0.1-3-0.9-5.4-2.4-7.1
			c-1.5-1.6-3.8-2.4-6.9-2.4c-1.8,0-3.4,0.4-5,1.1c-1.6,0.8-3,2.1-4.4,4.1c0.4,1.3,0.6,2.8,0.6,4.6v15.9h-2.8v-16
			c0-6.4-3.1-9.6-9.4-9.6c-3.7,0-6.5,1.6-8.7,4.5v21.1h-2.8V49.5h2.3l0.5,2.8c2.6-2.5,5.6-3.8,9.1-3.8c4.6,0,8,1.9,10.2,5.5
			c1.6-1.9,3.2-3.2,4.8-4.2C142.9,48.9,145,48.4,147.5,48.4z"/>
		<path class="st2" d="M163.6,68.9c-0.1-1.7,0.2-3.2,0.8-4.5c0.6-1.4,1.6-2.3,2.7-3.1c1.1-0.8,2.5-1.4,3.9-1.7
			c1.5-0.4,3-0.5,4.6-0.5c2.3,0.1,4.4,0.5,6.1,1.5c1.7,0.9,3.2,1.9,4.3,3.2v-1.1c0-3.9-0.8-6.7-2.3-8.6c-1.6-1.9-3.9-2.7-7.2-2.7
			c-1.9,0-3.8,0.4-5.5,1.1c-1.8,0.7-3.2,1.8-4.3,3.1l-1.6-2.4c1.4-1.5,3-2.6,5.1-3.4c2-0.8,4.1-1.1,6.3-1.1c4.1,0,7.1,1.1,9.2,3.3
			c2.1,2.2,3.1,5.6,3.1,10.3V77h-2.3l-0.5-2.8c-1,0.9-2.5,1.8-4.5,2.5s-3.9,1.1-5.7,1.1c-3.6,0.1-6.5-0.6-8.7-2.1
			C165,74.2,163.7,72,163.6,68.9z M186.1,71.6v-4.4c-0.6-1.4-2-2.6-3.9-3.8s-4.1-1.8-6.3-1.9c-1.1-0.1-2.3,0-3.4,0.3
			c-1.1,0.2-2.1,0.6-3,1.1s-1.7,1.4-2.2,2.3c-0.5,1-0.7,2.2-0.6,3.6c0.1,2.1,1,3.7,2.7,4.7s3.9,1.6,6.5,1.7c1.9,0,3.8-0.3,5.6-0.9
			C183.2,73.7,184.7,72.8,186.1,71.6z"/>
		<path class="st2" d="M207.7,48.7l-0.6,2.8c-0.3,0-0.6-0.1-1.1-0.1c-4.3,0-7.4,1.5-9.5,4.4v21h-2.8V49.5h2.3l0.6,2.8
			c2.6-2.5,6-3.8,9.8-3.8C206.6,48.5,207.1,48.5,207.7,48.7z"/>
		<path class="st2" d="M214.8,35.7v41.1H212V35.7H214.8z M233.4,49.5L220,63.1l14,13.6h-4l-13.6-13.6l13.2-13.6
			C229.6,49.5,233.4,49.5,233.4,49.5z"/>
		<path class="st2" d="M258,51.3l-1.4,2.4c-0.8-0.7-2.1-1.4-3.8-2s-3.3-0.9-5-0.9c-1.9,0-3.4,0.4-4.6,1.1c-1.1,0.8-1.8,1.9-1.9,3.3
			c-0.1,1.7,0.6,2.9,2,3.8c1.3,0.7,3,1.3,5.2,1.7c2.8,0.6,5.1,1.1,6.7,1.9c1.7,0.7,2.8,1.8,3.6,3.3c0.6,1.5,0.7,3.1,0.4,5
			c-0.5,2.3-1.9,4.1-4.3,5.1c-1.7,0.8-3.9,1.1-6.4,1.1c-2.1,0-4.3-0.4-6.4-1.1c-2.1-0.8-3.8-1.7-5-2.8l1.4-2.4l0.3,0.3
			c0.8,0.8,2.3,1.7,4.1,2.4c1.9,0.7,3.8,1,5.6,1c2.2,0.1,4-0.3,5.3-1c1.4-0.7,2.3-1.8,2.5-3.2c0.5-2.4-0.3-4.1-2.5-5
			c-1.5-0.6-3.4-1.1-5.7-1.7c-2.9-0.6-5-1.4-6.3-2c-2.5-1.5-3.7-3.6-3.4-6.2c0.2-2.5,1.3-4.4,3.3-5.7c1.6-1,3.6-1.6,6.1-1.6
			C251.7,48.1,255.1,49.2,258,51.3z"/>
	</g>
	<path id="logo" class="st2" d="M87.9,45.4c-9.7,0-17.7,7.9-17.7,17.7s7.9,17.7,17.7,17.7s17.7-7.9,17.7-17.7S97.6,45.4,87.9,45.4z
		 M96.2,65.4l1.6,9c0,0.1,0,0.2,0,0.3c0,0.3-0.1,0.5-0.2,0.6c-0.1,0.2-0.3,0.3-0.5,0.3s-0.5-0.1-0.7-0.2l-8-4.2l-8,4.3
		c-0.3,0.1-0.5,0.2-0.7,0.2c-0.3,0-0.5-0.1-0.6-0.3c-0.1-0.2-0.2-0.4-0.2-0.6c0-0.1,0-0.2,0.1-0.3l1.6-9.1L73.7,59
		c-0.3-0.3-0.5-0.6-0.5-0.8c0-0.5,0.3-0.7,1-0.8l9.1-1.4l4.1-8.2c0.2-0.5,0.5-0.7,0.8-0.7s0.6,0.3,0.8,0.7l4.1,8.2l9.1,1.4
		c0.6,0.1,1,0.4,1,0.8c0,0.3-0.1,0.5-0.5,0.8L96.2,65.4z"/>
</g>
<g>
	<path class="st1" d="M326,20c23.7,0,43,19.3,43,43s-19.3,43-43,43s-43-19.3-43-43S302.3,20,326,20 M326,18c-24.9,0-45,20.1-45,45
		s20.1,45,45,45s45-20.1,45-45S350.9,18,326,18L326,18z"/>
</g>
<g class="st3">
	
	
	
	
	
	
	
	<path class="st2 major-digit7_" d="M297.7,79.3L309,53.8h-14.2v-7.3h23.7v5.2l-11.6,27.6H297.7z"/>
	
	
    
	<path class="st2 dot-digit" d="M322.9,74.5c0-1.4,0.4-2.4,1.2-3.2s2-1.1,3.6-1.1c1.5,0,2.6,0.4,3.4,1.1c0.8,0.7,1.2,1.8,1.2,3.2 c0,1.3-0.4,2.4-1.2,3.2c-0.8,0.8-1.9,1.1-3.4,1.1c-1.5,0-2.7-0.4-3.5-1.1S322.9,75.9,322.9,74.5z"/>
    
    
	
	
	<path class="st2 minor-digit4_" d="M359.6,72.9h-3.6v6.4h-8.8v-6.4h-13.1v-6.5l13.7-20h8.2v19.9h3.6V72.9z M347.2,66.3v-3.8c0-0.7,0-1.7,0.1-2.9 c0.1-1.2,0.1-1.9,0.1-1.9h-0.2c-0.5,1.2-1.1,2.2-1.7,3.2l-3.6,5.4H347.2z"/>
	
	
	
	
	
	
</g>
<g id="part1"><path class="st2" d="M352.4,26.6l-1.2,1.6C344.1,23,335.4,20,326,20v-2c0.5,0,0.9,0,1.4,0c0.1,0,0.2,0,0.3,0 c7.3,0.2,14.3,2.2,20.6,5.9c0.5,0.3,1.1,0.6,1.6,1c0,0,0.1,0,0.1,0.1c0.4,0.2,0.7,0.5,1.1,0.7C351.6,26,352,26.3,352.4,26.6z"/></g>
<g id="part2"><path class="st2" d="M368.8,49.1l-1.9,0.6c-2.8-8.7-8.4-16.2-15.6-21.4l1.2-1.6c0.5,0.3,0.9,0.7,1.3,1c0.3,0.2,0.6,0.5,0.8,0.7 c6,4.8,10.5,10.9,13.2,18.2c0.1,0.3,0.3,0.7,0.4,1c0,0.1,0.1,0.2,0.1,0.3C368.5,48.3,368.7,48.7,368.8,49.1z"/></g>
<g id="part3"><path class="st2" d="M369.3,75.4c-0.2,0.5-0.3,1-0.5,1.5l-1.9-0.6c1.4-4.2,2.1-8.6,2.1-13.3c0-4.6-0.7-9.1-2.1-13.3l1.9-0.6 c0.1,0.4,0.3,0.8,0.4,1.3c0,0.1,0.1,0.2,0.1,0.3C371.7,58.8,371.7,67.1,369.3,75.4z"/></g>
<g id="part4"><path class="st2" d="M368.8,77c-0.1,0.3-0.2,0.7-0.3,1c0,0,0,0,0,0.1s0,0,0,0.1s0,0,0,0.1c0,0,0,0,0,0.1s0,0,0,0.1s0,0,0,0.1 c-0.2,0.4-0.3,0.8-0.5,1.3c-2.7,7.1-7.1,13.3-13.2,18.1c-0.3,0.2-0.6,0.5-0.8,0.7c0,0-0.1,0.1-0.2,0.1c-0.4,0.3-0.8,0.6-1.1,0.8 l0,0l-1.2-1.6c7.2-5.3,12.8-12.8,15.6-21.4L368.8,77z"/></g>
<g id="part5"><path class="st2" d="M352.4,99.4c-0.4,0.3-0.8,0.6-1.3,0.9c-0.4,0.2-0.7,0.5-1.1,0.7l0,0c-0.5,0.3-1.1,0.6-1.6,1 c-6.2,3.7-13.1,5.7-20.5,5.9c-0.3,0-0.6,0-0.8,0c-0.3,0-0.7,0-1,0v-2c9.4,0,18.1-3.1,25.2-8.2L352.4,99.4L352.4,99.4z"/></g>
<g id="part6"><path class="st2" d="M326,106v2c-0.4,0-0.8,0-1.3,0c-0.2,0-0.3,0-0.5,0c-7.3-0.2-14.1-2.1-20.4-5.8c-0.5-0.3-1.1-0.6-1.6-0.9 c0,0-0.1,0-0.1-0.1c-0.3-0.2-0.7-0.5-1-0.7c-0.5-0.3-1-0.7-1.5-1l1.2-1.6C307.9,103,316.6,106,326,106z"/></g>
<g id="part7"><path class="st2" d="M300.7,97.8l-1.2,1.6c-0.4-0.3-0.9-0.6-1.3-1c-0.3-0.2-0.6-0.5-0.9-0.7c-6.3-5-10.9-11.5-13.6-19.3 c0-0.1-0.1-0.2-0.1-0.3c-0.1-0.4-0.3-0.8-0.4-1.2l1.9-0.6C287.9,85,293.5,92.5,300.7,97.8z"/></g>



</svg>
